# xmcd
#
# Track frame offsets:
#	150
#	18009
#	35378
#	57760
#	69649
#	86090
#	100396
#	115141
#	132993
#	153133
#	173904
#	186633
#	203810
#	219316
#	235486
#	245046
#	260485
#	275080
#	295868
#
# Disc length: 4176 seconds
#
# Revision: 0
# Processed by: cddbd v1.5.1PL2 Copyright (c) Steve Scherf et al.
# Submitted via: dBpowerAMP V4.0
#
DISCID=1c104e13
DTITLE=Mix - Mix
DYEAR=2004
DGENRE=Acid Jazz
TTITLE0=xgfhgfh
TTITLE1=xhfdgh
TTITLE2=h;klj;
TTITLE3=sfgsg
TTITLE4=sdgsg
TTITLE5=sdgsg
TTITLE6=sgsg
TTITLE7=ss13
TTITLE8=ns14
TTITLE9=ss14
TTITLE10=ns13
TTITLE11=zfvsdags
TTITLE12=Track13agsg
TTITLE13=aagadg
TTITLE14=agasdg
TTITLE15=xbvxcb
TTITLE16=xbcvxb
TTITLE17=dfhgfdh
TTITLE18=hdgfghjku
EXTD=rrgsg
EXTT0=
EXTT1=
EXTT2=
EXTT3=
EXTT4=
EXTT5=
EXTT6=
EXTT7=
EXTT8=
EXTT9=
EXTT10=
EXTT11=
EXTT12=
EXTT13=
EXTT14=
EXTT15=
EXTT16=
EXTT17=
EXTT18=
PLAYORDER=
